Coordinates
version=1
nRows=24
nColumns=24
inDegrees=yes

Units are S.I. units (second, meters, Newtons, ...)
Angles are in degrees.

endheader
time	pelvis_tilt	pelvis_list	pelvis_rotation	pelvis_tx	pelvis_ty	pelvis_tz	hip_flexion_r	hip_adduction_r	hip_rotation_r	knee_angle_r	ankle_angle_r	subtalar_angle_r	mtp_angle_r	hip_flexion_l	hip_adduction_l	hip_rotation_l	knee_angle_l	ankle_angle_l	subtalar_angle_l	mtp_angle_l	lumbar_extension	lumbar_bending	lumbar_rotation
      1.30833333	      2.46681782	      5.97905747	     -3.08675049	      0.18088944	      1.06913310	      0.33393890	     13.48508171	     -8.30780864	     -1.51569987	    -68.09545663	     -5.14981517	    -15.77589750	      7.80081140	      4.55878746	     10.73425708	     -3.97759840	     -5.99588446	     -2.30728159	     -5.80565066	      4.97646211	      0.94212692	     -4.12719524	      0.60405887
      1.31250000	      2.49617622	      5.99228896	     -3.11761818	      0.18572821	      1.06961318	      0.33373243	     14.09378680	     -8.24114422	     -1.20642396	    -68.05338083	     -4.88374781	    -15.79052810	      7.76786667	      4.18892646	     10.78379703	     -3.84326069	     -5.90713266	     -2.22897562	     -5.75436269	      4.96809300	      0.86699032	     -4.08319002	      0.56370268
      1.31666667	      2.47856672	      6.03309127	     -3.21150866	      0.19068422	      1.06999504	      0.33363121	     14.75685200	     -8.17932803	     -0.84453494	    -68.00825605	     -4.06379775	    -15.66040160	      7.66810707	      3.87530701	     10.86208211	     -3.95221491	     -5.81467135	     -1.95759626	     -5.81302800	      4.93381994	      0.86483621	     -4.19421477	      0.52150433
      1.32083333	      2.49186326	      6.06517917	     -3.26634377	      0.19556803	      1.07041313	      0.33336329	     15.36309975	     -8.12872527	     -0.52665189	    -67.85566060	     -3.70497796	    -15.57633603	      7.61848587	      3.51185857	     10.94752370	     -3.82843532	     -5.68602017	     -1.85426451	     -5.77297414	      4.91604542	      0.81768809	     -4.13878606	      0.47358412
      1.32500000	      2.48660238	      6.06146756	     -3.30891008	      0.20047154	      1.07083019	      0.33331525	     15.95478398	     -8.00337756	     -0.20509562	    -67.64210995	     -2.96664247	    -15.29509003	      7.51897590	      3.18115006	     10.97037289	     -3.86000121	     -5.60788929	     -1.63004927	     -5.84495660	      4.87223259	      0.79693955	     -4.21901811	      0.42503999
      1.32916667	      2.50045470	      6.08372457	     -3.35534041	      0.20537634	      1.07124710	      0.33307410	     16.51867558	     -7.93037645	      0.10178645	    -67.35059890	     -2.62720256	    -15.16523759	      7.46773680	      2.80657881	     11.04571439	     -3.72048876	     -5.46769742	     -1.53919463	     -5.82215835	      4.84875464	      0.75529811	     -4.16735228	      0.37484743
      1.33333333	      2.51184983	      6.09047950	     -3.40510188	      0.21028500	      1.07165436	      0.33295849	     17.06208716	     -7.81818188	      0.41572397	    -66.99797423	     -2.10408439	    -14.99098081	      7.41312417	      2.43786247	     11.09310921	     -3.64249785	     -5.34004596	     -1.37118087	     -5.87237311	      4.81969752	      0.72174267	     -4.17291544	      0.32109592
      1.33750000	      2.51936139	      6.09065387	     -3.43887385	      0.21517625	      1.07205434	      0.33283596	     17.58733512	     -7.69647305	      0.71363394	    -66.57713577	     -1.60403952	    -14.74761371	      7.35815397	      2.07116840	     11.13468540	     -3.55245065	     -5.20693935	     -1.22923314	     -5.92460628	      4.78623876	      0.68897898	     -4.17233525	      0.26492923
      1.34166667	      2.52542351	      6.07313540	     -3.41994820	      0.22006719	      1.07246203	      0.33271343	     18.07393687	     -7.56130055	      0.95871617	    -66.08800555	     -0.95480398	    -14.27200662	      7.25746076	      1.71561197	     11.15283654	     -3.50648639	     -5.10953452	     -1.07481953	     -6.05187436	      4.71679860	      0.61790186	     -4.22291746	      0.19151036
      1.34583333	      2.51212790	      6.05654407	     -3.40061807	      0.22496119	      1.07283906	      0.33262018	     18.56294659	     -7.41783553	      1.19703774	    -65.50267297	     -0.81345073	    -14.24022225	      7.24121901	      1.36798541	     11.16579106	     -3.37888213	     -4.98341151	     -1.04341869	     -6.03504772	      4.70644567	      0.54467536	     -4.21944975	      0.16507145
      1.35000000	      2.55541957	      6.06088267	     -3.44113503	      0.22990642	      1.07324119	      0.33246283	     18.98657128	     -7.30130434	      1.48098284	    -64.90335591	     -0.14317027	    -13.90249545	      7.16407645	      0.94379761	     11.22409188	     -3.28871153	     -4.81726103	     -0.82899700	     -6.19116024	      4.64363481	      0.52733259	     -4.20552422	      0.07596458
      1.35416667	      2.52749650	      6.05431697	     -3.42546696	      0.23478136	      1.07354253	      0.33237315	     19.46159303	     -7.16332900	      1.71977975	    -64.21113589	     -0.00302850	    -13.85268844	      7.14828711	      0.60797491	     11.24893266	     -3.15543162	     -4.68017863	     -0.80255984	     -6.17767131	      4.63136168	      0.45269736	     -4.21736988	      0.04977750
      1.35833333	      2.57033387	      6.07680733	     -3.45104792	      0.23966649	      1.07388992	      0.33214086	     19.85301715	     -7.07615739	      1.99081681	    -63.50248623	      0.65227112	    -13.30961667	      7.02414695	      0.17761003	     11.33336190	     -2.96663510	     -4.48949902	     -0.66473437	     -6.37163857	      4.51312069	      0.38301357	     -4.21314423	     -0.08650810
      1.36250000	      2.53677761	      6.06198535	     -3.42360156	      0.24458924	      1.07416867	      0.33209842	     20.28055396	     -6.92351067	      2.20631820	    -62.67887585	      0.77523546	    -13.30778543	      7.01014146	     -0.15788545	     11.34360636	     -2.87704724	     -4.34726621	     -0.62418919	     -6.37792296	      4.50132703	      0.33875121	     -4.24322267	     -0.10419673
      1.36666667	      2.56859499	      6.06404685	     -3.46370962	      0.24960133	      1.07449984	      0.33198555	     20.62737669	     -6.79247938	      2.46690842	    -61.81258849	      1.04687325	    -13.25957366	      6.97878051	     -0.59490841	     11.39637676	     -2.74534295	     -4.13376033	     -0.49752082	     -6.44334980	      4.47054441	      0.40682437	     -4.21150466	     -0.15551409
      1.37083333	      2.52245426	      6.05884105	     -3.43263392	      0.25448563	      1.07469998	      0.33194612	     21.03229519	     -6.64779993	      2.68015965	    -60.88709748	      1.20729366	    -13.23446951	      6.96436983	     -0.91546840	     11.41537268	     -2.65618096	     -3.99217825	     -0.43767538	     -6.47370275	      4.45599934	      0.32176202	     -4.24752693	     -0.18203655
      1.37500000	      2.62541820	      6.06293719	     -3.43343228	      0.25939342	      1.07508113	      0.33167990	     21.25445101	     -6.55428358	      2.88333576	    -59.91806045	      1.67217276	    -12.89613206	      6.82900534	     -1.43438257	     11.48388188	     -2.39873793	     -3.76795971	     -0.29766167	     -6.76340579	      4.29755722	      0.19294154	     -4.22137897	     -0.38304673
      1.37916667	      2.59736184	      6.06022083	     -3.43211659	      0.26439896	      1.07527409	      0.33162629	     21.58941942	     -6.41265582	      3.10043970	    -58.86822429	      1.77202065	    -12.92410396	      6.79940739	     -1.79943584	     11.51446384	     -2.31566121	     -3.57641988	     -0.24352763	     -6.79482249	      4.26594252	      0.23526153	     -4.24417179	     -0.41328864
      1.38333333	      2.53867240	      6.07617950	     -3.41108813	      0.26930465	      1.07537041	      0.33158650	     21.94835560	     -6.29022505	      3.31249788	    -57.78439474	      1.86836515	    -12.95278270	      6.78409900	     -2.11309944	     11.55685602	     -2.23420285	     -3.42078287	     -0.19204832	     -6.81367152	      4.25025989	      0.18638937	     -4.28649422	     -0.43427019
      1.38750000	      2.58713521	      6.05126923	     -3.40293732	      0.27438393	      1.07565871	      0.33143340	     22.13402811	     -6.14964293	      3.47942004	    -56.60090047	      1.93039954	    -13.07991991	      6.69931996	     -2.58712461	     11.57737500	     -2.08643792	     -3.19086500	     -0.03251888	     -7.00051772	      4.15049556	      0.18245836	     -4.19300905	     -0.57337193
      1.39166667	      2.50938672	      6.09074832	     -3.39347200	      0.27930989	      1.07565862	      0.33138013	     22.47619926	     -6.05436012	      3.68466060	    -55.42152827	      2.00553335	    -13.11631166	      6.68589046	     -2.88722085	     11.64816484	     -1.99605268	     -3.00425309	     -0.00618922	     -6.99709080	      4.13652636	      0.12950900	     -4.29312573	     -0.58333614
      1.39583333	      2.62391299	      6.06169416	     -3.37503403	      0.28428316	      1.07598845	      0.33121378	     22.54485473	     -5.92204991	      3.82535132	    -54.11444061	      1.82744640	    -13.48513299	      6.53660901	     -3.43507270	     11.66291610	     -1.75773640	     -2.76915341	      0.06820364	     -7.18138120	      3.95341813	      0.06438157	     -4.26956978	     -0.79582703
      1.40000000	      2.52125719	      6.10803250	     -3.36436609	      0.28925773	      1.07589269	      0.33114315	     22.86677768	     -5.83964002	      4.00665676	    -52.83894299	      1.90614846	    -13.51960924	      6.52464193	     -3.70918539	     11.74209114	     -1.71812976	     -2.58175101	      0.10681110	     -7.18847161	      3.94071247	      0.02008577	     -4.35599222	     -0.80205554
      1.40416667	      2.54913949	      6.07661755	     -3.36825886	      0.29439321	      1.07606001	      0.33108512	     22.97145917	     -5.68469260	      4.17734831	    -51.42076740	      1.69711185	    -13.85631647	      6.43558222	     -4.16443718	     11.74374853	     -1.62627056	     -2.36384447	      0.23820330	     -7.31248246	      3.83443942	      0.12940724	     -4.22562432	     -0.92995694
